<?xml version="1.0" encoding="UTF-8"?>
<!-- Created with Inkscape (http://www.inkscape.org/) -->
<svg width="310" height="169.4" version="1.1" viewBox="0 0 310 169.4" xml:space="preserve" xmlns="http://www.w3.org/2000/svg" xmlns:cc="http://creativecommons.org/ns#" xmlns:dc="http://purl.org/dc/elements/1.1/" xmlns:rdf="http://www.w3.org/1999/02/22-rdf-syntax-ns#" xmlns:xlink="http://www.w3.org/1999/xlink"><metadata><rdf:RDF><cc:Work rdf:about=""><dc:format>image/svg+xml</dc:format><dc:type rdf:resource="http://purl.org/dc/dcmitype/StillImage"/><dc:title/></cc:Work></rdf:RDF></metadata><defs><linearGradient id="linearGradient1299" x1="598.58" x2="665.17" y1="37.035" y2="37.035" gradientTransform="matrix(2.12 0 0 2.12 -1066 87.777)" gradientUnits="userSpaceOnUse"><stop stop-color="#add7fe" offset="0"/><stop stop-color="#d4e8fb" offset=".5"/><stop stop-color="#cee7fe" offset="1"/></linearGradient><filter id="filter1348" x="-.074811" y="-.035336" width="1.1496" height="1.0707" color-interpolation-filters="sRGB"><feGaussianBlur stdDeviation="0.77805169"/></filter><filter id="filter1190" x="-.23588" y="-.23148" width="1.4718" height="1.463" color-interpolation-filters="sRGB"><feGaussianBlur stdDeviation="0.42172149"/></filter></defs><g transform="matrix(1.3333 0 0 -1.3333 -252.28 306.44)" fill-rule="evenodd"><g><rect transform="scale(1,-1)" x="189.54" y="-229.5" width="231.83" height="126.38" stroke="#000" stroke-linecap="round" stroke-linejoin="round" stroke-width=".66818"/><path d="m410.27 220.6c-1.3166 0-2.2695 1.0027-2.2695 2.3066 0 1.3749 1.0513 2.3027 2.2695 2.3027 1.2054 0 2.2598-0.92764 2.2598-2.3027 0-1.3784-1.0544-2.3066-2.2598-2.3066zm0 0.61914c0.35485 0 0.67507 0.11624 0.93359 0.3164h-0.36718a0.11952 0.11952 0 0 0-0.10156 0.0566l-0.5918 0.97852h-0.18555v-0.91602a0.11952 0.11952 0 0 0-0.11914-0.11914h-0.39844a0.11952 0.11952 0 0 0-0.11914 0.11914v2.418a0.11952 0.11952 0 0 0 0.11914 0.11914h0.91797c0.30609 0 0.55299-0.0512 0.73242-0.1875 0.17944-0.13633 0.26953-0.35609 0.26954-0.625 0-0.24342-0.0792-0.43691-0.2168-0.5664-0.0945-0.0889-0.21388-0.13958-0.3418-0.17383l0.58594-0.91992a0.11952 0.11952 0 0 0 6e-3 -0.01c0.2657 0.29306 0.42969 0.70153 0.42969 1.1953 0 1.0081-0.68185 1.6875-1.5527 1.6875-0.88537 0-1.5664-0.67941-1.5664-1.6875 0-0.47007 0.1541-0.89252 0.42383-1.1953s0.65393-0.49023 1.1426-0.49023zm-0.31445 1.9277c0.65618-1.1028 0.0919 3.8173 0.66601 0.42578-0.55645 0.08-0.2453 0.0377-0.66601 0.043z" fill="#dcedff" filter="url(#filter1190)"/><rect transform="scale(1,-1)" x="197.53" y="-222.44" width="152.02" height="112.25" fill="#08223d" stroke="#d8ebfc" stroke-linecap="round" stroke-linejoin="round" stroke-width=".63599"/><path d="m229.53 201.69c-0.42808-0.69984 0.51638-2.0316 0.63529-2.48 0.10197-0.38729-0.28537-0.8799-0.38049-1.2094-0.282-0.98522-0.27858-1.9263-0.50962-2.9862-0.0952-0.44505 0.13928-1.1279-0.0644-1.4642 0.0106-0.48922 0.15963-1.5628-0.0613-1.9059-0.58093-0.40428-1.753-0.31595-2.3543-0.69985-0.0212-0.0645-0.0407-0.1291-0.0645-0.19024-0.32274-0.39069-0.78478-0.73382-1.0804-1.1449-0.55375-0.77119-1.0667-3.0066-1.9059-3.309-0.0339-0.0306-0.62511-3e-3 -0.82894 0.0645-0.50282 0.17326-1.0328 0.45864-1.59 0.0645h-0.12571v15.961c0.12571 0.33973 0.25479 0.67946 0.38049 1.0158 0.14945 0.14948 0.29895 0.29897 0.44504 0.44505 0.20733 0.41787 0.0748 0.98183 0.31935 1.3352 0.18677 0.15287 0.5062 0.17326 0.69984 0.31934 0.31596-0.0679 0.37712-0.30236 0.63531-0.3805 0.26499-0.0815 1.3318 0.1325 1.5899 0.19025 1.06 0.23102 1.1789-0.10871 1.7802 0.0645 0.10197-0.27179 0.1766-0.62171 0.19016-0.95464 0.72024-0.33974 1.4405-0.67947 2.1641-1.0192 0.35672-0.11552 0.84934 0.0476 1.1415-0.12569 0.13928-0.0577 0.0952-0.0544 0.19376-0.12911-0.11214-0.48921-0.98862-0.82215-1.2094-1.4608m0.31933-58.502c-0.14946-0.82895-0.29896-1.6545-0.44505-2.48-0.21742-0.71004-0.68286-1.2876-0.89008-2.035-0.10876-1.5696-0.21403-3.1391-0.31935-4.7053-0.27859-0.99541-1.0532-1.454-1.59-2.1641-0.64209-0.84933-1.4642-1.505-2.1607-2.2898-0.22081-0.24461-0.53338-0.7542-0.82894-0.8901h-0.50621c-0.38049-0.1291-0.60132-0.54357-0.8935-0.761-0.56053-0.42466-0.98859-0.80176-1.6511-1.1449-0.26839-0.13928-0.91048-0.56056-1.3997-0.2548h-1.0158c0.53677 1.1041 1.2434 2.317 1.5866 3.5604-0.0212 0.8901-0.0407 1.7802-0.0613 2.6703 0 0.52998 0.13928 2.2286-0.0644 2.5446 0.017 0.92747 0.21072 3.4958-0.31935 3.8152 0.15624 1.206 0.3771 1.8753 1.2094 2.4155 0.0407 0.93086 0.0712 2.0486 0.25479 2.9251-0.0407 2.7348-0.085 5.4697-0.12571 8.2045 0 1.7054 0.2446 3.7404-0.76439 4.4505v1.4642c0.1291 0.24121 0.75758 0.48922 0.89008 0.82555 0.0645 0.44505 0.12571 0.8901 0.19016 1.3352 0.33294 1.2876 0.42128 2.035 0.12911 3.2444-0.14946 0.60473-0.0106 1.2944-0.12911 1.8447-0.1732 0.80177 0.35333 2.351 0 2.9251 4e-3 0.17327 4e-3 0.28878 0.0644 0.38051 0.10536 0.0815 0.2718 0.1121 0.44506 0.12569 0.0645 2.779 0.12572 5.5546 0.19016 8.3302 0.59113-0.1223 0.95803-0.8935 1.3352-1.2706 0.99201-0.99541 1.9908-2.0044 3.1799-2.7994 0.65229-0.43485 1.607-0.48582 2.035-1.1449 0.744-1.1415 0.31255-3.2342 1.1449-4.3214-0.0543-0.28198-0.18337-0.32614-0.44504-0.3839 0.0918-0.38729 0.34314-0.69305 0.44504-1.0158v-1.2094c0.32955-1.522 0.1766-4.2568-0.57414-5.2149 0.15284-0.8901 0.85612-1.8481 1.1449-2.7314 0.2548-0.77459-0.0373-1.7802 0.3839-2.3543-0.0678-0.513-0.44845-0.42807-0.6387-0.7644-0.0918-0.16307-0.27519-0.75081-0.31596-0.8901-0.32613-1.0905 0.71004-2.8164 0.95466-3.4958 0.0884-0.2548-6e-3 -0.67607 0.12571-0.8901-0.0106-0.35672-0.0986-0.43826-0.31935-0.57415v-0.31595l0.44505-0.0645c-0.0127-1.8481-0.28876-3.4177-0.69645-4.8955m10.236-1.0804c-0.21072 0.93766 0.11893 2.6295-0.44504 3.241 0.0782 0.74062 0.98862 1.5016 1.2706 2.1607 0.18676 0.43486 0.22081 1.2774 0.31935 1.719 0.10875 0.48242 0.017 1.3318-0.0644 1.7156v2.1641c-0.14267 0.64889-0.23782 1.4574-0.38051 2.0961-0.0212 1.2094-0.0407 2.4189-0.0645 3.6249-0.15285 0.71344-0.29895 3.1052 0.0645 3.6249-0.0712 0.43825-0.5062 0.50959-0.76439 0.76439-0.42126 0.41787-0.8867 1.1041-1.0804 1.7156v1.274c-0.31255 1.454-0.25819 3.6555 0.0644 5.0858 0.0884 0.39749 0.43146 2.1845 0.2548 2.48-0.0748 0.58773-0.61152 0.496-0.82895 0.89009v0.2548c-0.26499 0.52998-0.83233 1.0192-1.2706 1.3997-0.19695-0.0408-0.15285-0.0136-0.2548-0.12911-0.40767 0.12569-0.7712 0.61152-0.89008 1.0192-0.47225 0.72024 1.2672 2.796 0.63528 3.6249-0.46202 0.58094-1.8244 0.49941-2.6057 0.761-0.77459 0.26159-1.223 0.94106-1.8447 1.3352 0.0127 0.82215 0.37031 0.8833 0.69986 1.3351 0.47561 0.65229 0.92065 1.2604 1.3997 1.9093 0.20372 0.27518 0.59454 0.52998 0.761 0.82555 0.18677 0.32614 0.14267 0.67946 0.31935 1.0192 0.34992 0.67266 1.0294 1.2842 1.4642 1.9059 0.58772 0.84933 0.97501 1.7904 1.5254 2.6703 0.66247 1.0668 1.5322 2.2558 1.9704 3.4992 0.54697 1.5526 0.068 4.3044-0.2548 5.7856-0.0212 1.0192-0.0407 2.035-0.0647 3.0542-0.58434 2.5208-1.0804 5.3542-2.8605 6.6757-0.56734 0.42127-1.3283 0.91048-2.035 1.1449-0.79157 0.26499-1.6715 0.23441-2.3509 0.63529-0.17999 0.10532-1.0464 0.67947-1.1449 0.82555-0.42128 0.61152-0.25822 1.3827-1.0192 1.6545-0.32952 0.21063-2.2422 0.0713-2.796 0.0645-1.274-0.0645-2.5446-0.12911-3.8152-0.19025-1.2502-0.29556-4.0768-0.48242-5.4051-0.19363h-2.4189c-1.9738 0-3.822-0.0102-5.4663-0.3805-0.52999-0.0204-1.06-0.0408-1.5899-0.0646-0.56056-0.13928-3.2139-0.72362-3.8152-0.31595h-1.5288c-0.17998-0.0951-0.47561-0.77459-0.69984-0.95464 0-0.28538 6e-3 -0.87651-0.12571-1.0804 0.0106-0.73722 0.33633-0.57754 0.57415-1.0192 0.88669-1.6511 2.9149-2.2864 3.6215-4.0054 0.31256-0.0917 1.0872-0.5028 1.4642-0.2548 0.25819-0.0204 0.31596-0.0544 0.44504-0.19024 0.40089-0.62511-0.0127-2.2728 0.38051-2.9251-0.0475-0.46544-0.63191-0.87991-0.95465-1.0804 0-1.8481 0.0918-4.1447-0.19016-5.8502-0.0407-0.2514 0.0644-1.1687 0.0644-1.7156 0-1.206-0.13249-2.6635 0.0645-3.754v-8.8398c0.27178-0.77119 1.3317-1.1924 1.0158-2.5412-0.15964-0.68965 0.078-1.7258-0.12572-2.4189-0.16302-0.55036-0.65907-1.0124-0.82894-1.5254-0.0212-0.61492-0.0407-1.2298-0.0611-1.8448-0.23103-0.97502-0.14945-4.1719 0.19016-5.0212 0.0714-0.18007 0.31935-0.3805 0.38049-0.57414v-1.0804c0.19016-0.81196-0.0271-2.9387 0.31935-3.4958v-0.19366h-0.1291c-0.22423-0.20044-0.50281-0.26159-0.761-0.44505-0.18338-0.1291-0.24462-0.3771-0.44507-0.5062 0-0.48242-0.0407-0.94445-0.1291-1.3351-0.0407-2.5888-0.085-5.1741-0.12571-7.7595-0.0212-1.2706-0.0441-2.5446-0.0644-3.8152 0.26841-0.93086 0.14267-2.2422 0.38051-3.3056 0.12571-0.55716-0.0407-1.3046 0.0644-1.7802v-1.274c0.23101-0.93765 0.1698-2.1097 0.38049-3.0508 0.13928-0.61492-0.0543-1.4371 0.0644-1.9738v-2.7314c0.23782-0.97163 0.0645-2.4053 0.0645-3.4992 0-0.3771 0.0952-0.93766 0.0647-1.206-0.15963-1.3521-0.13589-3.3498-0.44507-4.8344 0.0212-0.52998 0.0407-1.06 0.0613-1.59-0.496-1.8447-1.1313-3.9884-1.3352-6.105-0.30915-0.16646-0.4892-0.45864-0.761-0.6353-0.69984-0.2548-1.3997-0.5096-2.0995-0.7644 0.16981-0.19024 0.33975-0.3805 0.5096-0.57075 0.3839-0.2446 2.4936-0.5028 3.241-0.31934 1.1856 0.29556 1.4948 0.20044 2.6703-0.0612 1.0192-0.0238 2.035-0.0442 3.0542-0.0646 0.46883-0.10192 1.24-0.1223 1.7802 0 0.0782 0.017 0.42806 0.0136 0.57075 0.0646 0.84932 0.27857 1.2162 1.2944 2.2286 1.4608 0.60473 0.10193 1.077-0.6285 1.5254-0.761 0.46544-0.1393 1.2366 0.21743 1.59 0.31595 1.6103 0.31935 3.2206 0.6353 4.831 0.95465 0.41106 0.18685 0.34653 0.83914 0.57415 1.206 0.31594 0.51299 0.92066 1.1109 1.3997 1.4642 1.3487 1.0022 2.8436 1.8685 4.3859 2.6703 0.67607 0.35332 1.3318 0.68286 1.9704 1.0192 0.30916 0.15968 0.64888 0.22423 0.89009 0.44505 0.0748 0.1223 0.0441 1.0634 0.1291 1.3963 0.31594 1.2298 0.63529 2.4597 0.95464 3.6895 1.2196 3.3565 4.7529 6.601 3.6861 11.384m64.926-20.668c-0.0407 1.1449-0.085 2.2898-0.12571 3.4347-0.0127 0.53338 0.13928 2.0112-0.0645 2.351v1.5899c-0.37709 0.53338-2.1709 0.13589-2.9896 0.31935-0.75761 0.16987-1.8346-0.1223-2.6703 0.0645-0.56734 0.1257-1.4235 0.0612-2.0995 0.0612h-4.0054c-2.3034 0-6.319 0.23102-7.8206-0.0612h-1.6545c-0.98862 0-1.9467-0.0645-2.796-0.2548-1.2944-0.10871-2.5888-0.21403-3.8797-0.31934-0.48583-0.16988-0.78818-0.79837-1.2094-1.0158-0.36012-0.0645-0.72024-0.12911-1.0804-0.19366-0.58094-0.16307-1.3148-0.38729-1.9093-0.5062-0.34314-0.0713-0.96825 0.1223-1.2706 0.19025-1.2774 0.28197-2.6465 0.0985-3.7506 0.50959-0.22082 0.0781-0.54017 0.2548-0.7644 0.31595h-1.3351c-0.0748 0.017-0.33634 0.1223-0.5096 0.0645-0.46544-0.15628-2.086-1.4506-2.351-1.8447h-4.4505c-0.53678 0-0.84593-0.11551-1.0838-0.0645-0.32952 0.0747-0.59793 0.35332-0.95124 0.44505 4e-3 0.80516-0.34314 1.6987-0.76439 2.035 0.0543 1.0158 0.6183 1.3963 0.82555 2.3543 0.17998 0.82895-0.265 3.2105 0.0645 3.7506v1.3351c0.11893 0.24461 0.57414 0.28878 0.69986 0.57415 0.31254 0.70325 0.0748 1.6715 0.25479 2.48 0.0952 0.42806 6e-3 1.1551 0.19016 1.59 0.0645 0.14948 0.32614 0.34312 0.38052 0.5062 0.0543 0.15967-0.0509 0.38729-0.0613 0.44844-0.22423 1.1041 0.16642 1.2162-0.57415 1.9059 0.0613 0.96823 0.60811 2.0792 1.4642 2.2898-6e-3 0.59793-0.16302 2.6941 0.0611 3.0508 0.0373 1.5798 0.23101 2.0112-0.82555 2.6091v5.9113c0.27519 0.21403 0.55038 0.42466 0.82555 0.63869 6e-3 0.7576-0.0237 1.7734 0.1291 2.48 0.11893 0.55377-0.0407 1.3046 0.0611 1.7802 0.12571 0.57414-0.0407 1.3453 0.0645 1.8447 0.0212 1.2264 0.0441 2.4563 0.0644 3.6861 0.10536 0.49601-0.0611 1.2672 0.0647 1.8447 0.1732 0.80517 0.14607 2.0486 0 2.7348-0.2514 1.1551-0.0271 2.9964-0.50959 3.8797-0.30576 0.56055-1.1008 1.009-1.6545 1.3351 0.0441 3.985 0.085 7.9701 0.1291 11.955v3.3056c0 0.3805-0.0986 1.077 0.0611 1.3351-0.0305 0.90029 0.15963 1.043 0.69986 1.3352v4.1345c-0.0918 0.18685-0.45865 0.19705-0.63531 0.31595-0.27519 0.19025-0.70664 0.75081-0.82555 1.0804-0.0782 0.11551-0.0816 0.26838 0 0.38389-4e-3 0.58095 0.34992 0.86292 0.69986 1.0804v7.8852c-0.56397 0.52998-1.06 1.223-1.5288 1.8448-0.33633 0.33973-0.67605 0.67606-1.0158 1.0158-0.32613 0.43486-0.69984 1.0328-1.1449 1.3352-0.17659 0.1223-0.52999 0.32614-0.69986 0.38389h-1.0158c-0.8833 0.29557-1.4404 1.1211-1.9093 1.8414-1.4235-3e-3 -2.8402 0.10193-4.1957 0.12911-0.5096 0.0102-1.5424-0.16307-1.9093 0.0645-0.60472-0.0102-0.79496 0.28877-1.0158 0.6353-0.43145-0.0544-1.0022-0.0679-1.5288-0.0646-0.0509-0.7576-0.39071-1.3317-0.89011-1.6545 0.40088-0.5062 1.1313-0.81196 1.59-1.2706 0.5164-0.51299 1.026-1.0702 1.4642-1.6545 0.12571-0.10532 0.2548-0.21064 0.38049-0.31595 0.265-0.39069 0.31255-0.87991 0.57415-1.274 0.085-0.0849 0.16981-0.16646 0.2548-0.2514 0.32274-0.0782 0.66927-0.23782 0.95124-0.31935 0.41787-0.11891 0.94107 0.0136 1.274-0.19025 0.5232-0.20383 0.70664-1.1551 0.89011-1.7156 0.55375-1.7122 0.95463-2.9998 0.19016-4.8344-0.22423-0.53338-1.043-1.6409-0.63529-2.2898 0.017-0.43825 0.29556-0.65568 0.57073-0.82554v-6.1695c-0.0748-0.10532-0.32274-0.0544-0.44504-0.12569-0.45863-0.27518-0.68625-0.91048-1.1449-1.2094v-4.1957c0-0.74741-0.0441-1.5832 0.0644-1.7802-0.0106-0.68286 0.31935-1.0566 0.69986-1.3351v-9.6042c0-1.471-0.29556-2.9489 0.63529-3.5604 6e-3 -0.64209 0.085-1.274 0.19016-1.8448-0.20055-0.19363-0.79835-1.0192-0.89008-1.2706 0.0212-1.8855 0.0441-3.7744 0.0644-5.6599 0-0.82555-0.1291-2.565 0.0644-2.8605 0.0271-0.78478-0.40088-1.0566-0.95464-1.2094-0.0106-0.93426-0.38049-3.3056-0.1291-3.6895 0.0271-1.3861 0.2616-2.5684-0.63529-3.1153-0.11554-0.74401 0.0475-1.3352 0-1.9704-0.0212-0.30916-0.10875-0.58774-0.0644-0.8901 0.0271-0.18007 0.0986-0.47223 0.0644-0.69985-0.11554-0.78817 0.0577-1.6953 0-2.48-0.0475-0.66247-0.10536-1.3623-0.0644-1.9704 0.0509-0.70664-0.0441-1.3895 0-2.035 0.0212-0.26839 0.12911-0.69306 0-0.8901 0.23782-0.6319 2.3272-1.7598 1.6545-2.7994 0.017-0.72363-0.3839-0.78478-0.82555-1.0158 4e-3 -0.36691-0.0237-2.1165 0.12571-2.3543 0.0339-0.80856-0.3669-1.0702-0.95464-1.206-6e-3 -0.78818-0.14945-3.0644 0.0644-3.4347v-3.3701c0.19016-0.14948 0.38049-0.29896 0.57415-0.44505-0.0441-0.36011-0.085-0.72023-0.12911-1.0803-0.12571-0.12911-0.25479-0.2548-0.38049-0.3839-0.1732-0.28198-0.0441-1.2298 0-1.3352v-2.5446c-0.0986-0.18685-1.043-0.72362-1.274-0.89009-1.2808-0.92407-2.565-1.9501-4.0666-2.6703-0.068-0.19705-0.0237-0.54357-0.1291-0.761h-0.0647c-0.10876-0.16307-0.73383-0.83574-0.89011-0.95465 0.12911-0.34992 0.44506-0.31934 0.6387-0.57414 0.18338-0.23782 0.23782-0.55037 0.44504-0.761 0.0339-0.0136 1.4541 0.30915 1.7802 0.3805h1.2061c1.2604 0 2.5174 0.034 3.5604-0.19025 0.45863-0.0985 1.0566 0.0883 1.3997-0.12569 0.49601 0.0612 0.85952 1.0939 1.2094 1.4608 0.8901 0.93765 1.9297 1.7088 3.0508 2.4155 0.30916 0.19705 0.72363 0.66247 1.0838 0.76439 0.16641 0.0476 0.3635-0.0612 0.69644-0.0646 1.6613-7e-3 2.1913-0.0476 3.309-0.5096 0.18338-0.0747 0.35331-0.0272 0.5096-0.12569 0.35672-0.22762 0.57754-0.66927 1.0158-0.82555 0.28878-0.18685 1.7462-0.0645 2.2252-0.0645h14.245c1.0634 0 2.3034 0.0713 3.1799-0.12569 0.33972-0.0238 0.67605-0.0442 1.0158-0.0646 0.50961-0.18004 0.9003-0.78138 1.3997-0.95464h2.2252c0.90707-0.0408 2.6941-0.1223 3.6249-0.12569 0.65568-3e-3 2.1063 0.14269 2.4155-0.0646 0.56737-7e-3 0.45185-0.28197 0.69987-0.57414 0.65907-0.12569 1.3148-0.2514 1.9704-0.3805 0.10876-0.27518 0.21403-0.55037 0.31935-0.82555 0.3669-3e-3 2.1165 0.0203 2.3543-0.12911 0.67608 0.0272 0.88669-0.27857 1.0158-0.76099 1.5967-7e-3 5.2624-0.10872 5.5342 0.0645h5.7856c-0.56398 1.454-1.4914 2.6193-1.8448 4.1957zm-44.386 90.87c0.46882 0.0204 0.81196 0.13589 1.0804-0.1257 0.0271-0.0442-0.0106-0.26159 0.0644-0.38389 0.6421-0.91388 2.6601-0.54697 3.1153-1.8448 0.36012-5.6158 0.72024-11.232 1.0803-16.851-0.0339-1.1585 0.14607-0.84254 0.69986-1.3352 0.0212-0.0204 0.0441-0.0408 0.0644-0.0645h-0.0644c-0.10875-0.34313-0.42127-0.7678-0.69986-0.95125 0.0237-1.8855 0.0441-3.7744 0.0644-5.6599 0-1.5628-0.1325-3.9205 0.0645-4.9601v-1.5254c0-1.4269-0.10876-3.6046 0.0613-4.515v-5.2149c0.31935-1.4235-0.23442-3.489 0.0644-4.9601 0.27856-1.3759-0.20733-3.9443 0.0645-5.4051 0.0748-0.41108 0.21744-2.0078 0.0644-2.48-0.2344-0.70665-0.69645-1.4439-0.95463-2.1641-0.085-0.74062-0.16981-1.4812-0.2548-2.2252 0.41106-1.2842 1.6918-2.5752 0-3.6249 0.0127-1.9806 0.21742-4.0972-0.19016-5.9759-0.16303-0.75081-0.0441-1.5424-0.19037-2.2252-0.16981-0.77458 0.0918-2.3611-0.2548-2.9251-0.0782-0.59792-0.86632-0.79497-1.274-1.0803-1.0634-0.74741-1.5288-2.1539-2.5412-2.9251 0.12232-0.83234 1.1924-1.257 1.9059-1.5288 0.24121 0.31934 1.6579 1.5152 2.035 1.6545 0.86291 0.31935 2.0588 0.16987 3.0542 0.31935h1.3352c0.48581 0.10871 2.7416 0.19705 3.3056 0.0612 0.52999-0.14609 1.06-0.29557 1.59-0.44505 0.3771 0.0713 0.84253 0.44165 1.2094 0.5096 0.12572-0.0204 0.25141-0.0408 0.38051-0.0645h1.0158c0.44844-0.13928 0.65229-0.3771 1.3352-0.3805-4e-3 0.77459-0.17998 2.6397-0.5062 3.1153-0.10536 0.15287-0.35673 0.20722-0.5096 0.31935-0.8833 0.64549-1.9059 1.2604-2.8605 1.8447-0.69645 0.42127-1.4642 0.67946-1.7802 1.4608-0.10875 0.44505-0.21403 0.8901-0.31935 1.3352-0.45863 1.505-0.59113 2.7994 0.82555 3.4992 0.0271 1.3284 0.11215 3.0814 0.38389 4.3248 0.10875 0.5028-0.11215 1.1992 0.12571 1.5866-0.0748 0.38389-0.25141 0.20044-0.38051 0.44504-0.16303 0.30576-0.12232 0.6353-0.2548 0.95465-0.2344 0.56056-0.64548 1.2026-0.82555 1.7802-0.20733 0.65908 0.14945 1.2876 0 1.9093-0.20055 0.81876-0.89009 3.1459-0.57413 4.0054 0.21072 0.57415 1.0328 1.274 1.5254 1.59 0.0373 0.91048 0.20734 1.9433 0 2.8605v0.57414c-0.0237 0.0442-0.22422 0.0646-0.25479 0.12569v0.69985c-0.10876 0.5028 0.0127 1.1755-0.12572 1.7802-0.0952 0.40767-0.39749 1.1143-0.31935 1.5899 0.15624 0.92747 0.0647 1.9433 0.0647 3.0542v1.3351c0.24801 0.73043 1.043 1.3182 1.274 2.0962-0.085 0.72023-0.16981 1.4439-0.2548 2.1641-0.085 0.0849-0.16981 0.16987-0.2548 0.2548-0.0212 0.27518-0.0441 0.55036-0.0644 0.82554l-0.44505 1.6545c-0.0271 0.17326 0.0986 0.4994 0.12572 0.63529v1.6511c0.0441 2.7145 0.085 5.4289 0.1291 8.14 0 1.1891 0.16642 2.6839-0.0644 3.754-0.0407 2.1403-0.085 4.2806-0.12572 6.4209 0 0.79497-0.22422 2.0588 0 2.6703 0.16981 0.16988 0.33973 0.33974 0.50621 0.5096 0.36351 0.48921 0.87649 1.6545 0.3839 2.4155-0.0305 0.36352-0.282 0.61152-0.57415 0.69985-0.0127 2.1845 0.82553 3.1289 2.1641 3.9443 0.67947 0.41448 1.7157 0.62851 2.1607 1.2706v1.3997c-0.12572 0.44505-1.0871 1.539-1.4608 1.7802-0.0884 0.0748-0.66588-0.18685-1.0192-0.19025-1.0804-0.0645-2.1607-0.1291-3.2411-0.19024-0.91048-0.23781-3.1969-0.15287-4.1345 0h-4.07c-1.0294 0.26839-2.2932 0.25819-3.3056 0.44505-0.16642-0.33973-0.65907-1.2706-0.89008-1.5288 0.44165-0.64549 1.2706-1.0464 1.7156-1.7156m48.837-55.45c-0.78477-0.0204-1.5696-0.0408-2.3543-0.0646-0.58774-1.2026-1.2808-2.3713-1.8413-3.5604-0.23442-0.051-0.59113-0.1223-0.76439-0.2548-0.31935 0.0612-0.57756 0.30576-0.76442 0.5096-1.0124-0.19025-1.1483-2.3577-1.7156-3.1153-0.20055-0.3873-2.1879-1.1755-2.6703-1.5254-0.4892-0.36011-0.84593-1.0973-1.2094-1.5899-0.68966-0.94445-1.539-1.8447-2.2252-2.7994-0.43145-0.60132-0.72021-1.2978-1.3997-1.6545-1.3793-0.72363-3.3226-0.6353-4.7664-1.2706-0.3567-0.15628-0.64887-0.54357-0.95463-0.7644-0.27178-0.19363-0.57076-0.30236-0.7644-0.57074-0.32954-7e-3 -1.3759-0.0577-1.5899-0.19025-0.58774 0.0306-0.56395 0.42806-0.89011 0.69985 0.0816 0.40767 0.36351 0.67946 0.5096 1.0158 0.33974 0.78139 0.6353 1.556 0.95466 2.2898 0.9852 2.283 1.7972 4.6679 2.7348 6.9305 0.22762 0.55376 0.47224 1.1381 0.63531 1.6545 0.0577 0.18686-0.0441 0.48242-0.0647 0.57075-0.11893 0.57415-0.0644 1.6579 0.0647 2.0995 0.28198 0.96824 0.76779 2.0078 1.1449 2.9251 0.79838 1.9467 1.3895 3.8118 2.2253 5.7245 0.57754 1.3284 1.5254 2.4019 2.351 3.4958 0.36011 0.33973 0.72023 0.67946 1.0837 1.0192 0.45863 0.78478-0.20733 2.0112 0.12571 3.1765 0.63531 2.2184 2.334 3.0304 4.1345 4.07 0.0407 1.2944 0.085 2.5888 0.12571 3.8797 0.085 0.24121 0.39408 0.496 0.5096 0.76439 0.73721 1.7292 1.3725 3.489 2.0962 5.1503 0.31935 0.72703 0.46541 1.5696 0.89008 2.2252 0.23104 0.35332 0.6421 0.62171 0.8935 0.95464 0.20733 0.27858 0.34653 0.56396 0.63531 0.761-0.0373 0.42466-0.16642 0.86292-0.2548 1.274-0.2718 1.2332 0.45863 3.574 1.0803 3.9409-0.0212 5.0858-0.0407 10.175-0.0644 15.264-0.16642 0.48922-0.67267 0.91049-0.82554 1.4608v4.5796h-1.7802c-1.4371 0.2616-6.5636 0.0612-9.5397 0.0612-1.2536 0-3.1969 0.0849-3.9409-0.0612h-4.1345c-0.58773 0-1.3555 0.034-1.5254-0.0646-0.94105 3e-3 -2.6635 0.19364-3.4347-0.0645 0.19695-0.96144-0.20733-1.6919-0.69984-2.1607v-7.8206c0.0647-0.13928 0.85273-0.76779 1.0192-1.0192 0.33294-0.50959 0.42128-1.223 0.57076-1.9059 0.12571-0.56396-0.35673-2.531-0.5096-3.0542-0.0577-0.20383-0.30237-0.65228-0.19016-0.95464 0.0271-0.0713 0.22423-0.22423 0.25482-0.31595 0.16981-1.2502 0.33972-2.5038 0.5096-3.754 0.12571-0.44844 0.56734-0.74741 0.69984-1.1415 0.11553-0.34652-0.18677-0.6353-0.12911-0.89349 0.0884-0.39069 0.57756-0.82555 0.76439-1.206 0.88333 0.0102 0.81536 0.72703 1.1449 1.2706 0.33633 0.55376 0.84592 1.2434 1.0804 1.8447 0.0212 2.3102 0.0441 4.6204 0.0644 6.9305 0.32614 1.026 2.3849 1.3521 3.1153 2.0996 0.23441 0.31595 0.12911 0.98182 0.2548 1.3997 0.22423 0.74062 0.65229 1.5186 1.0804 2.0962 0.86291 1.1619 2.4291 2.2524 4.0054 2.6737h8.7141c4e-3 -0.97503 4e-3 -1.9806-0.12911-2.8639-0.0644-0.43486 0.13589-1.1415-0.0644-1.4608v-1.3351c-0.19695-0.43826-1.3623-1.3725-1.7156-1.8448-0.87311-1.1653-1.7326-2.317-2.6058-3.4992-0.44165-0.59454-1.1415-1.1415-1.4642-1.8414-0.0212-0.33973-0.0407-0.67946-0.0644-1.0192-0.17321-0.80177-0.13929-2.847 0.25479-3.4347-0.017-0.77799-1.4608-1.6851-1.9704-2.0962-0.55378-0.44844-0.82216-1.9127-1.2706-2.5446-0.14946-0.20722-0.49261-0.35332-0.69986-0.50959-0.36012-0.26839-0.64888-0.68966-1.0192-0.95465-0.14606-0.10532-0.41447-0.16646-0.5062-0.31595-0.18677-0.29896-0.1766-0.6285-0.31935-0.95464-0.86632-1.9942-1.4405-4.4641-2.1607-6.6757-0.16981-0.82895-0.33975-1.6545-0.50962-2.48-0.17659-0.28877-0.50618-0.55377-0.69984-0.82895-0.40767-0.57414-0.73721-1.1415-1.1449-1.7156-0.17659-0.24801-0.49262-0.48922-0.63531-0.7644-0.23782-0.45184-0.21403-0.96484-0.38049-1.4608-0.12911-0.37711-0.72704-1.3929-0.3839-1.9093-0.0918-0.67606-0.80516-1.0056-1.1449-1.4608-0.46202-0.62511-0.82214-1.2706-1.2706-1.9093-0.1325-0.18346-0.40428-0.36691-0.5096-0.57075-0.061-0.31935-0.12571-0.6353-0.19016-0.95465-0.36692-1.2196-0.66588-3.5672-1.5899-4.1957-0.0212-0.19025-0.0407-0.3839-0.0644-0.57415 0.0543-0.33294 0.29556-0.7576 0.19376-1.206-0.25479-1.1109-0.44165-2.3611-0.69986-3.4992-0.13249-0.58434-0.017-1.2094-0.1291-1.7156-0.0407-0.18005-0.13589-1.9297-0.12572-1.9738 0.0543-0.20383 0.47564-0.67267 0.63531-0.82555-0.0339-0.53338-0.62172-2.1301-0.57075-2.2252 0.15624-0.93766 0.95124-1.753 1.3963-2.48 0.12572-0.20383 0.12233-0.48921 0.25482-0.69985 0.0212-0.95804-0.21072-1.3589-0.761-1.7156-0.0237-0.8901-0.0441-1.7802-0.0644-2.6703 0-0.34993 0.0816-0.97503-0.0647-1.2094v-1.3351c-0.0748-0.17666-0.84254-1.0294-1.0158-1.1449-4e-3 -1.0056 0.56056-1.1925 0.95124-1.7802 2.1199-0.0204 4.2398-0.0408 6.3598-0.0646 0.84592-0.28878 2.2694-1.4201 3.1799-0.761 0.59791 0.0306 1.0328 0.86631 1.2706 1.2706 0.1732 0 0.29215 3e-3 0.38388 0.0646 1.3555 0.0442 2.2117 0.2412 2.48-0.8901 1.967-0.0102 3.9511 0.0985 5.7211 0.12569 0.65227 0.0102 2.4766-0.1121 2.7348 0.0645h0.76439c0.0986 0.051 0.11554 0.28878 0.19016 0.3805 0.1732 0.22423 0.64888 0.48922 0.89009 0.6353 0.35333 0.21403 1.7088 0.5096 1.9059 0.69985 0.52319 0.5062 0.31935 2.1981 0.31935 3.1799-0.0212 2.8843-0.0407 5.7652-0.0644 8.6496 0.20054 0.72363 0.72023 1.4371 1.0837 2.035 0.14946 0.248 0.16642 0.51299 0.31594 0.761 0.19016 0.30915 0.54018 0.61151 0.44506 1.0192-0.28539 1.2264-0.17998 2.9455-0.19016 4.4505m33.893-21.494c-0.0238 0.0781 6e-3 1.8583 0.0644 2.035 0.0509 0.16646 0.21404 0.44845 0.31596 0.6353 0.12572 0.22762 0.48242 0.51299 0.31935 0.82894-4e-3 1.2876-0.78818 1.719-1.2706 2.5412-0.80858 0.15967-1.9093 0.0102-2.7348 0.19024h-1.2094c-0.40088 0.13589-0.69986 0.56056-1.1449 0.69985-0.2344-0.21743-0.56734-0.31255-0.76439-0.57075-0.35673-0.47562-0.79838-0.87651-1.1415-1.3352-0.13589-0.18004-0.22084-0.42806-0.38391-0.57414-0.65568-0.29557-1.3148-0.59113-1.9704-0.8901-0.94784-0.49261-1.9161-1.1585-2.8605-1.5899-0.6693-0.30236-1.4031-0.34313-2.0996-0.6353-0.51638-0.21743-1.0566-0.60472-1.5254-0.8901-0.30915-0.18685-0.67266-0.23102-0.95464-0.44505-0.5164-0.39748-0.74741-1.3997-0.95463-2.0995-0.0816-0.28198-0.0441-0.55716-0.19016-0.761-0.11215-0.19705-2.0927-0.36691-2.2898-0.2548-1.0362 0.0204-2.8232 0.265-3.1799-0.44504h-0.63529c0.085 1.1211 0.44165 1.9263 0.76439 2.796 0.17999 0.49261 0.41108 1.0702 0.5096 1.5288-0.0238 0.14609-0.0441 0.29557-0.0645 0.44505 0.11893 0.31255 0.5266 0.68286 0.69986 1.0158 0.83234 1.6035 1.719 3.4313 2.2252 5.2794 0.1698 0.6251 0.37031 2.334 0.19016 3.1153-0.10197 0.44505-0.27517 1.3691-0.12572 1.9059 0.64888 2.3645 1.9059 4.5456 2.48 6.9951 0.0407 3.1153 0.085 6.2341 0.12572 9.3494 0.40766 1.4778 1.7802 2.0826 2.2252 3.4958 0.18677 0.58773 0.19016 1.1891 0.19016 1.9093v0.89009c0.12911 0.42127 0.58434 0.80177 0.76441 1.2094 0.52997 1.1992 0.8833 2.6023 1.3351 3.8152 0.29898 0.80516 0.60133 2.6329 1.2706 2.9862v6.2341c0.0237 1.0362 0.0441 2.0758 0.0644 3.1153 0.33294 1.3521 1.0124 2.7043 1.4643 4.07 0.36011 1.1007 0.22081 2.3238 0.5062 3.4958 0.17659 0.72363 0.15963 1.7564 0.5096 2.3543 0.0986 0.16646 0.34992 0.20045 0.50959 0.31595 0.60811 0.44505 0.89689 0.93766 0.95464 1.9738 0.0106 0.22422 0.12232 0.43825 0 0.63529v1.6511c0.11554 0.2514 0.61491 0.39749 0.82555 0.57415 0.11554 0.0985 1.223 1.5356 1.2706 1.6545 0.0212 0.31595 0.0441 0.6353 0.0644 0.95125 0.18677 0.84933 0.26158 1.7836 0.2548 2.7994 1.3555 1.2332 1.8447 3.0474 2.7348 4.7698 0.14946 0.28877 0.81877 1.4099 0.63531 1.7156v0.69985c-0.29896 0.0645-0.59794 0.12569-0.95464 0.12569-0.16981 0.27858-0.33974 0.55376-0.50962 0.82895-9.3868 0.0408-18.78 0.0849-28.171 0.12569 0.0238-4.831 0.0441-9.6654 0.0645-14.496-0.10536-0.3839-0.21051-0.76439-0.31594-1.1449-0.2412-0.39749-0.68966-0.79837-0.82894-1.274-0.25821-0.8901 0.11893-2.0452 0.2548-2.6703 0.0782-0.35672-0.12232-0.71343-0.19016-0.95464-0.0918-0.32954-0.0271-0.64889-0.19016-0.8901 0.19016-0.52319 0.94107-0.73042 1.2706-1.1449 0.25141 0.0849 0.49262 0.31935 0.57415 0.57415 0.34994 0.0238 1.0906 0.20044 1.3963 0 1.0464 0.1121 1.6035 2.1811 1.9093 3.1799 0.77117 2.5208 1.0702 5.5682 2.035 7.8206 0.265 0.61831 0.45864 1.2672 0.89009 1.7156 0.0714 0.0679 0.78479-0.0204 1.0158 0.0646 0.64889 0.23441 1.9806 0.84253 2.7348 0.31935 0.51638-0.0577 1.1653-0.83914 1.3997-1.2094 1.4778 0 3.3803 0.0442 4.515-0.31595 0.0237-0.71683-0.15964-0.89689-0.57074-1.1449 0-0.93766 0.20373-2.3136-0.0647-3.1187-0.20394-0.60812-0.86292-0.92067-1.2094-1.3963-0.21073-0.29217-0.39747-0.66927-0.57074-0.95464-0.41447-0.67607-0.66588-1.3623-1.0804-2.035-0.15963-0.25819-0.43487-0.55716-0.57415-0.82554-0.57414-1.1109-0.83575-2.2864-1.3351-3.4347-0.26839-0.61492-0.68626-1.325-0.89011-1.9704-0.16642-0.52318 0.19016-1.0939 0.12571-1.5288-0.0613-0.44505-0.25821-1.0362-0.38051-1.4608-0.0644-0.3805-0.12571-0.7644-0.19016-1.1449-0.16302-0.42806-0.52999-0.8867-0.76439-1.2706-0.31596-0.52318-0.44504-1.0702-0.761-1.5899-0.12232-0.19705-0.37032-0.46883-0.44504-0.69985v-1.6545c-0.23782-0.98182-0.54697-1.8006-1.1449-2.4155-0.0237-0.93426-0.12232-1.804 0.44504-2.1641-0.0237-2.052-0.83233-3.6181-1.4642-5.1503-0.90369-2.1981-1.5968-4.4607-2.48-6.6112-0.40767-0.99881-0.73721-2.2898-1.0158-3.309-0.0212-0.5062-0.0441-1.0158-0.0644-1.5254-0.26161-1.1857-0.11554-2.6295-0.38052-3.8152-0.13249-0.59453 0.0816-1.8991 0.19016-2.4155 0.0645-1.0804 0.12572-2.1641 0.19016-3.2444 0.2378-0.92407 0.94445-1.7156 1.2094-2.6057 0.10536-1.6749 0.21072-3.3498 0.31596-5.0246-0.31596-0.95465-0.63531-1.9093-0.95125-2.8605-0.11554-0.40768-0.15624-0.89349-0.0647-1.274 0.0407-0.17327 0.21403-0.47563 0.12572-0.761-0.0918-0.30236-0.41448-0.6319-0.57076-0.8901-0.1732-0.28198-0.42126-0.73042-0.50959-1.0192 0.0212-0.23102 0.0441-0.46544 0.0644-0.69985-0.10536-0.59113-0.21403-1.1857-0.31935-1.7802-0.32952-0.67266-1.2196-1.1619-1.3352-2.035-0.0106-0.0713 0.11215-0.4994 0.12911-0.57075 0.25141-1.1653-0.20373-2.4495-0.95464-2.6703-0.0106-1.7972-0.26499-3.8084 0.12572-5.344 0.15963-0.61831 0.0577-1.1517 0.50959-1.4608 0.0475-0.0408 0.81197-0.0238 1.0804 0 0.90028 0.0815 1.6341 0.3771 2.3543 0.69985 0.5096 0.21063 1.0158 0.42466 1.5254 0.63529 1.0294 0.29217 2.9421-0.0408 3.8152 0.1257h2.9251c1.026 0.31934 2.5718 1.2842 3.1153 2.0995 0.80857-0.0577 1.7292-0.14948 2.48-0.31595 0.3669-0.0849 0.80855 0.0408 1.0804-0.12911 0.75759 0.0238 0.92746-0.41107 1.1449-0.89009h10.555c0.29895 0.0577 0.6115-7e-3 0.95463 0.0646h0.95464c0.0212 0.2548 0.0407 0.5096 0.0645 0.761 0.22083 0.21403 0.37031 0.46543 0.69986 0.57414-0.0238 2.7111-0.0441 5.4255-0.0645 8.14-0.1325 0.41787-0.57415 0.84933-0.69986 1.2706" fill="url(#linearGradient1299)" stroke="#d8ebfc" stroke-width="1.113"/><path d="m410.27 220.72c-1.257 0-2.1505 0.94106-2.1505 2.1879 0 1.3148 0.99201 2.1845 2.1505 2.1845 1.1449 0 2.1403-0.86971 2.1403-2.1845 0-1.3182-0.99542-2.1879-2.1403-2.1879m0.56735 0.93562-0.62511 1.0362h-0.37371v-1.0362h-0.39747v2.4189h0.91726c0.58435 0 0.8833-0.20383 0.8833-0.69305 0-0.43825-0.26838-0.62171-0.63189-0.66248l0.67607-1.0634zm-0.56735 3.0576c-0.94785 0-1.6851-0.74401-1.6851-1.8074 0-0.99202 0.64548-1.804 1.6851-1.804 0.93427 0 1.6715 0.73382 1.6715 1.804 0 1.0634-0.73721 1.8074-1.6715 1.8074m0.5728-1.3039c0 0.29217-0.28539 0.32614-0.5266 0.32614h-0.47903v-0.70664h0.44507c0.29895 0 0.56056 0.0306 0.56056 0.3805" fill="#07223d"/></g><path transform="matrix(2.12 0 0 2.12 -1066 87.777)" d="m694.99 16.42v-2.7884c-0.0497-0.05128-0.0994-0.10096-0.15064-0.15064-0.0849-0.14904-0.0112-0.38942 0-0.48076 0.016-0.10577-0.0593-0.55127 0.0304-0.68909-3e-3 -0.07532-3e-3 -0.11058-0.0304-0.15064-0.0817-0.0657-0.27083-0.09936-0.38942-0.12019 0.0994-0.15224 0.29006-0.3173 0.36057-0.47916 0.0289-0.33012 0.0593-0.66025 0.0897-0.99037h-5.7595c-0.0833 0.02885-0.17948 0.15545-0.26922 0.18109-0.11058 0.02885-0.17949-0.02885-0.27083-0.03045-0.1218 0.0641-0.71954 0.02083-0.87018 0-0.1266-0.01763-0.64102 0.04968-0.89903-0.15064h-0.83973c-0.0561 0.03686-0.16186 0.26442-0.20993 0.33012-0.14423 0.19551-0.51442 0.50961-0.60096 0.71954 0.0112 0.05128 0.0208 0.10096 0.0305 0.15064-0.0321 0.07852-0.25961 0.32532-0.33012 0.41987-0.11699 0.15545-0.32692 0.24359-0.45031 0.38942-0.34135 0.40384-0.64423 0.83492-0.95993 1.2612-0.5689 0.76601-1.2243 1.4743-1.7996 2.2484-0.52884 0.71473-1.2276 1.3493-1.7099 2.1009h-0.0593c-2e-3 -0.48717 0.0353-1.032-0.0593-1.4711-0.0529-0.24198 0.0128-0.57371-0.0304-0.77884v-0.81086c-0.016-0.06731-0.0753-0.21474-0.0897-0.26923v-0.66025c-0.0256-0.11218-0.0657-0.30769-0.0897-0.41987-0.0529-0.23237 0.0144-1.0785 0.0593-1.29v-0.5689c0.0881-0.41185 0.0897-0.84935 0.0897-1.3509h-4.9198c-0.94389 0-2.0336-0.05128-2.8782 0.0609-0.0657 0.14263-0.11057 0.34294-0.18109 0.47916h-0.12019c0.01 0.28525-0.0433 0.3798-0.20993 0.48076v2.6394c0 0.633-0.0192 1.3221 0.0914 1.8301 0.0978 0.45833-0.0321 0.95672 0.0593 1.3798 0.0817 0.38461-0.0881 0.60736-0.0897 0.92947-3e-3 0.70512-0.10257 1.8093 0.0304 2.4295 0.0353 0.16987-0.0481 0.41506 0.0288 0.54006 0.01 0.19872 8e-3 0.26602-0.12019 0.33012 0.0449 0.19551 0.25801 0.24519 0.36057 0.38942 0.01 0.0096 0.0192 0.02083 0.0304 0.03045-0.0817 0.14102-0.38942 0.57531-0.18109 0.89903v1.0208c-0.0689 0.01923-0.13942 0.04006-0.20993 0.05929v1.9198h2.1602c0.10737-0.04808 0.16185-0.1907 0.29967-0.24038 0.0689-0.04167 0.39262-0.0657 0.50961-0.02885 0.0929 0.02885 0.20833 0.15064 0.30128 0.17948 0.21313 0.06731 1.4246 0.01282 1.6186-0.03045 0.28846-0.0625 0.71313-0.0016 0.83973 0.12019h2.8509c0.12981-0.05769 0.24359-0.30448 0.32852-0.41987 0.24039-0.3189 0.53525-0.60416 0.78044-0.92947 0.10096-0.10096 0.20032-0.20032 0.29968-0.29968 0.10256-0.16666 0.0673-0.46313 0.18108-0.6298 0.15866-0.12981 0.31891-0.26121 0.47916-0.39102 0.28045-0.30929 0.56089-0.62018 0.83974-0.92947 0.0801-0.06731 0.20672-0.06731 0.27082-0.15064 0.46154-0.58813 0.97755-1.1234 1.4086-1.7388 0.1266-0.17948 0.25961-0.38461 0.36057-0.5705 0.0625-0.11698 0.0721-0.2532 0.15064-0.35897 0.0929-0.12981 0.30448-0.1266 0.44871-0.20993 0.31089-0.31089 0.62018-0.62018 0.93108-0.93108h0.0593c0.0401 1.8397 0.0801 3.6794 0.12019 5.5192v0.41986c0.0449-0.01602 0.0497-0.02083 0.12019-0.02885-0.0208 0.50961-0.0401 1.0192-0.0609 1.5288 0.14263 0.01603 0.25321 0.04167 0.33013 0.12019h3.9006c0.0705-0.04167 8e-3 -0.17628 0.0593-0.24038 0.12019-0.04006 0.24038-0.08013 0.36057-0.11859 0.0929-0.05449 0.30128-0.35416 0.38942-0.45031 0.29647 0.06731 0.3157 0.46794 0.54005 0.59935 0.28365 0.16666 1.3493 0.1234 1.8301 0.12019v0.08974h0.80929v-2.399c-0.0545-0.20352-0.21635-0.49358-0.20994-0.71954 3e-3 -0.11058 0.0946-0.13622 0.12019-0.21154v-1.9182c-0.0288-0.08814-0.14102-0.1875-0.15063-0.30128 0.0978-0.1875 0.0577-0.42788 0.12019-0.65864 0.24038-0.89582 0.12019-2.2708 0.12019-3.3605m0.59925 20.038v-0.83973c-8e-3 -0.02564-0.0817-0.09455-0.0898-0.12019-0.0593-0.1923-0.0144-0.61538-0.0304-0.6907-0.0609-0.32051 0.0224-0.7548 0.0609-0.99037 0.0304-0.1907-0.0272-0.41987-0.0609-0.5689-0.01-0.1907-0.0192-0.3798-0.0288-0.5705-0.13942-0.54967-0.27884-1.1058-0.66025-1.4102-1.1442-0.90704-2.258-1.29-3.8397-1.7692-0.5032-0.15224-1.04-0.18109-1.5304-0.29968-0.16987-0.0096-0.33974-0.02083-0.50961-0.03045-0.65063-0.15545-1.4166-0.12179-2.0689-0.26923h-0.45031c-0.36859-0.08654-0.88941-0.0609-1.29-0.0609h-0.47916c-0.32371-0.07532-1.3317-0.09936-1.6506-0.02885-0.67948 0.0096-1.359 0.01923-2.04 0.02885-0.95832 0.08974-1.9198 0.18109-2.8782 0.27083-0.0961 0.04487-0.1907 0.20352-0.30128 0.24038-0.18109 0.05929-0.23237-0.10416-0.41987-0.0609-0.37659 0.08654-0.8221 0.18429-1.1987 0.27083-0.14903 0.03365-0.21474-0.07211-0.30127-0.0609-0.14744 0.02083-0.39423 0.13301-0.54006 0.17948-0.28686 0.09455-0.54326 0.10096-0.80928 0.21154-0.84935 0.35096-1.6298 0.71634-2.3093 1.2291-0.52884 0.39743-0.66025 0.97595-0.83974 1.7404-0.0481 0.20352-0.0192 0.44551-0.0609 0.6298-0.0657 0.29647 0.0721 1.0112-0.0593 1.2291v0.59935c0.0224 0.04327 0.12019 0.02724 0.14904 0.0609 0.0513 0.24038 0.10096 0.47916 0.15064 0.71954-0.0192 0.10096-0.14103 0.26282-0.17949 0.36057-0.0641 0.15705-0.0849 0.38942-0.12019 0.54006v1.3493c0 1.2083-8e-3 2.8958 0.47916 3.6298 0.29647 0.4439 0.74518 0.64102 1.2003 0.92947 0.15064 0.09615 0.30127 0.27404 0.45031 0.36057 0.79807 0.45993 1.7996 0.6298 2.79 0.89902 0.94711 0.25801 2.2019 0.46954 3.2996 0.50961 0.35576 0.01282 1.1298 0.20673 1.2884-0.02885 0.13782 0.03205 0.24999 0.11378 0.36057 0.14904h0.59935c0.58332 0.08654 1.1987-0.05769 1.8301 0 0.71313 0.0657 1.6218 0.04647 2.2195-0.08974 0.15865-0.03686 0.27243 0.04487 0.36057 0.05929 0.4391-0.02885 0.8798-0.05929 1.3189-0.08974 0.33333-0.07532 0.69711-0.03526 1.0513-0.12019 0.93749-0.22436 1.9038-0.21955 2.7884-0.50961 0.54006-0.17628 1.1314-0.3173 1.6506-0.54006 0.23717-0.10256 0.48076-0.29487 0.74999-0.35897v-0.48076c0.1923 0.02724 0.32852 0.11058 0.47916 0.17948 0.40704-0.40865 0.8846-0.56249 1.1394-1.1699 0.19872-0.46794 0.14744-1.0705 0.27083-1.6186v-0.39102c0.0689-0.29166-0.0401-0.71794 0.0304-1.0497 0.10897-0.51762 0.0289-1.4856 0.0289-2.1586m-10.108 4.7689c-0.0657 0.61057-0.21794 1.1202-0.66025 1.3493-0.63941 0.33173-2.3237 0.2548-2.8798-0.08974-0.17628-0.10897-0.36538-0.34134-0.44871-0.54006-0.27885-0.65544-0.18109-1.9134-0.18109-2.8189v-0.5705c0.0128-0.03686 0.0801-0.02404 0.0609-0.12019-0.0144-0.06891-0.12821-0.19711-0.15064-0.26923-0.14904-0.48557 0.22275-1.0096-0.12019-1.3798 0.0272-0.13301 0.11217-0.15865 0.20993-0.20993v-2.2195c0-0.37499-0.0385-0.84774 0.0305-1.1699v-0.74999c0.0769-0.35576 0.0929-0.78685 0.26922-1.0497 0.47115-0.69871 2.6426-0.72755 3.3605-0.20993 0.33493 0.24038 0.2484 0.59134 0.45032 0.89902 0.0321 0.02244 0.0272 0.01923 0.0897 0.03045 0.0288 2.0961 0 4.3813 0 6.5688 0 0.7596-0.16346 1.9904 0.26923 2.3397-0.0321 0.13141-0.17148 0.18429-0.29968 0.20993m10.648 15.567h-0.68909c-0.0545 0.02404-0.0497 0.13622-0.15064 0.12019-0.10256-0.01602-0.28846-0.09455-0.38942-0.12019h-3.2996c-0.30608 0.10577-0.96633 0.12179-1.3798 0.08974-0.11379-8e-3 -0.13943-0.06731-0.20994-0.08974h-2.2804c-0.13301 0.03365-0.31731 0.1282-0.44871 0.15064-0.0914-0.02083-0.18109-0.04006-0.27083-0.0609-0.0849 0.02724-0.17628 0.16346-0.26923 0.20993-0.0593 0.05929-0.39903-0.22115-0.45031-0.29968h-0.27083c0.0112 1.2083 0.21313 3.7131-0.44872 4.2003-0.79005 0.57852-3.3461 0.47916-3.8701-0.24038-0.41666-0.57211-0.45192-2.0897-0.45032-3.0592h0.12019c-0.0385-0.79807-0.0593-1.7804-0.0593-2.6698 0-0.49679 0.0433-1.1314-0.0609-1.5304-0.0737-0.28525 0.01-0.74999 0.0609-0.98877 0.0336-0.16346-0.0433-0.39262 0.0289-0.51121-5e-3 -0.37339-0.0737-0.21634-0.14904-0.38942v-1.2596c0.10417 0.01442 0.15224 0.03365 0.20993 0.08974 0.14744-0.08173 0.27885-0.58653 0.54006-0.74999 0.78524-0.49038 2.8477-0.40705 3.54 0.08974 0.2516 0.18269 0.38942 0.58974 0.47916 0.93108 0.0385 0.14583-0.01 0.33493 0.0593 0.44871v1.6202c0 0.17788-0.0449 0.50961 0.0304 0.6298 0.32692 0.24198 0.89262-0.17788 1.3493-0.03045 0.67147 0.21794 1.9759 0.09134 2.8205 0.09134h1.0801c0.21314-0.06731 1.0529-0.57371 1.2292-0.48076 0.1266 0.0625 0.18589 0.28846 0.24038 0.41987 0.26281-0.0032 0.78204-0.03205 0.92947 0.0609 0.41826 0.0064 1.641 0.09615 1.7692-0.15064 0.20993 0.0096 0.42146 0.01923 0.6314 0.03045 2e-3 -1.4006-0.17788-2.7003-0.78044-3.5096-0.23718-0.31891-0.64102-0.47756-0.99037-0.6907-0.79646-0.48557-1.8397-0.75159-2.8189-1.0497-0.35096-0.05929-0.70031-0.12019-1.0497-0.17948-0.74679-0.20352-1.6506-0.20192-2.4599-0.39102-0.35897-0.08333-0.85576-0.10416-1.0497 0.09134-0.1907-0.03526-0.16826-0.16186-0.30128-0.20993h-0.92947c-0.24359-0.05288-0.61858 0.03045-0.89902-0.03045-0.65224-0.14102-1.2516-0.03205-1.9503-0.03045 8e-3 0.125 0.0273 0.20352 0.0898 0.27083v0.02885c-0.57211-0.0032-1.0881-0.13461-1.5288-0.23878-0.36378-0.08814-1.4038 0.05128-1.7099 0.11859-0.5705 0.04006-1.141 0.08013-1.7099 0.12019-0.53044 0.12179-1.1122 0.17147-1.6202 0.29968-0.12019 0.01122-0.24038 0.02083-0.36057 0.03045-0.33012 0.09775-0.6955 0.28044-0.98877 0.39102-0.16987 0.01923-0.33974 0.04006-0.50961 0.05929-0.24198 0.07051-0.49999 0.23397-0.6314 0.41986-0.10256-0.02724-0.21314-0.1298-0.35897-0.08974-0.24198 0.06731-0.51762 0.29326-0.71954 0.41987-0.86216 0.53685-1.2051 1.2564-1.5 2.3702-0.10416 0.38942 0.0353 1.6971 0.17949 1.9198-0.0449 0.13141-0.1891 0.28846-0.29968 0.35897v1.6202c0.12019 0.04968 0.24038 0.09936 0.36058 0.15064-0.0769 0.14583-0.23237 0.32211-0.36058 0.41987 0.0785 0.32371 0.10898 0.99838 0 1.3189-0.0673 0.19391-3e-3 0.6282 0.0304 0.78044v0.74999c0.0994 0.46153 0.0849 0.96954 0.23878 1.3798 0.29487 0.77884 1.1971 1.2291 1.9503 1.5593 0.21795 0.09455 0.47756 0.25801 0.71954 0.33012 0.12019 0.0096 0.24038 0.01923 0.36057 0.03045 0.0577 0.01602 0.15866 0.10256 0.24039 0.08974 0.12179-0.02083 0.32531-0.18109 0.44871-0.24038 0.10416 0.15705 0.33012 0.43749 0.51121 0.50961 0.13942 0.02083 0.27884 0.04006 0.41986 0.0609 0.0304 0.01602 0.0353 0.10416 0.0593 0.12019 0.1907 0.02885 0.3798 0.05929 0.5705 0.08974 0.35256 0.09295 0.81249 0.12179 1.1987 0.20993 0.16987 0.0096 0.33974 0.01923 0.51121 0.02885 0.60096 0.13622 1.2949 0.10416 1.9182 0.24038h0.87018c0.5048 0.10897 1.1923-0.05128 1.7099 0.0609 0.73556 0.15865 2.1186 0.01282 2.7307-0.12019 0.38301-0.08493 0.6939 0.1282 1.0192 0.05929 0.46474-0.09936 1.0144-0.12019 1.5304-0.12019 0.0689-0.06891 0.13942-0.13942 0.20993-0.20993 0.0705-0.06731 0.26282 0.16666 0.38942 0.15064 0.5689-0.08974 1.1394-0.17948 1.7099-0.27083 1.5705-0.4423 3.2035-0.67307 4.3493-1.5288 0.32372-0.24198 0.54006-0.78685 0.71955-1.1699 0.0753-0.01603 0.0256-0.0048 0.12019 0 0.39422-0.82851 0.40864-2.1041 0.38941-3.3301" fill="#dcedff" fill-opacity=".77833" filter="url(#filter1348)" stroke="#dcedff" stroke-opacity=".60099" stroke-width="1.5"/><path d="m407.33 122.59v-5.9113c-0.10536-0.10871-0.21072-0.21403-0.31935-0.31935-0.17998-0.31595-0.0237-0.82555 0-1.0192 0.0339-0.22423-0.12571-1.1687 0.0644-1.4608-6e-3 -0.15968-6e-3 -0.23442-0.0644-0.31935-0.1732-0.13928-0.57415-0.21064-0.82555-0.2548 0.21072-0.32274 0.61491-0.67267 0.76439-1.0158 0.0613-0.69984 0.12572-1.3997 0.19016-2.0995h-12.21c-0.17659 0.0612-0.38049 0.32954-0.57073 0.3839-0.23443 0.0612-0.38052-0.0612-0.57415-0.0645-0.25821 0.13589-1.5254 0.0442-1.8448 0-0.26838-0.0374-1.3589 0.10532-1.9059-0.31935h-1.7802c-0.11893 0.0781-0.34314 0.56056-0.44504 0.69985-0.30576 0.41447-1.0906 1.0803-1.274 1.5254 0.0237 0.10871 0.0441 0.21403 0.0647 0.31935-0.0681 0.16646-0.55036 0.68966-0.69984 0.8901-0.24802 0.32954-0.69306 0.51639-0.95464 0.82554-0.72365 0.85613-1.3657 1.77-2.035 2.6737-1.206 1.6239-2.5956 3.1255-3.8152 4.7664-1.1211 1.5152-2.6024 2.8605-3.6249 4.4539h-0.12572c-4e-3 -1.0328 0.0748-2.1879-0.12571-3.1187-0.11215-0.51299 0.0271-1.2162-0.0645-1.6511v-1.719c-0.0339-0.1427-0.15963-0.45525-0.19016-0.57075v-1.3997c-0.0543-0.23781-0.13928-0.65228-0.19016-0.8901-0.11214-0.49261 0.0305-2.2864 0.12572-2.7348v-1.206c0.18676-0.87311 0.19016-1.8006 0.19016-2.8639h-10.43c-2.001 0-4.3112-0.10871-6.1016 0.12911-0.13928 0.30236-0.2344 0.72702-0.3839 1.0158h-0.2548c0.0212 0.60473-0.0918 0.80517-0.44504 1.0192v5.5954c0 1.3419-0.0407 2.8028 0.19376 3.8797 0.20734 0.97163-0.0681 2.0282 0.12572 2.9251 0.1732 0.81536-0.18677 1.2876-0.19016 1.9704-6e-3 1.4948-0.21745 3.8356 0.0644 5.1503 0.0748 0.36011-0.10197 0.8799 0.0611 1.1449 0.0212 0.42127 0.017 0.56396-0.2548 0.69985 0.0952 0.41447 0.54697 0.51979 0.76439 0.82555 0.0212 0.0204 0.0407 0.0442 0.0645 0.0645-0.1732 0.29897-0.82555 1.2196-0.3839 1.9059v2.1641c-0.14607 0.0408-0.29557 0.0849-0.44504 0.12569v4.07h4.5796c0.22762-0.10192 0.34311-0.40428 0.63529-0.50959 0.14606-0.0883 0.83233-0.13928 1.0804-0.0612 0.19694 0.0612 0.44165 0.31934 0.6387 0.3805 0.45182 0.14269 3.0202 0.0272 3.4313-0.0646 0.61153-0.13249 1.5118-3e-3 1.7802 0.2548h6.0438c0.27519-0.1223 0.5164-0.64549 0.69645-0.89009 0.50961-0.67607 1.1347-1.2808 1.6545-1.9704 0.21403-0.21403 0.42467-0.42466 0.6353-0.6353 0.21743-0.35332 0.14268-0.98182 0.38389-1.3351 0.33635-0.27518 0.67607-0.55376 1.0158-0.82894 0.59455-0.65569 1.1891-1.3148 1.7802-1.9704 0.1698-0.14269 0.43823-0.14269 0.57412-0.31935 0.97845-1.2468 2.0724-2.3815 2.9863-3.6861 0.26838-0.3805 0.55036-0.81536 0.76439-1.2094 0.1325-0.248 0.15285-0.53677 0.31935-0.761 0.19694-0.27518 0.64548-0.26839 0.95125-0.44505 0.65907-0.65908 1.3148-1.3148 1.9738-1.9738h0.12571c0.085 3.9001 0.16981 7.8002 0.2548 11.7v0.8901c0.0952-0.034 0.10536-0.0442 0.25479-0.0612-0.0441 1.0803-0.085 2.1607-0.1291 3.241 0.30237 0.034 0.53679 0.0883 0.69986 0.2548h8.2691c0.14946-0.0883 0.017-0.37371 0.12571-0.5096 0.2548-0.0849 0.5096-0.16987 0.76439-0.2514 0.19695-0.11552 0.6387-0.75081 0.82556-0.95465 0.6285 0.1427 0.66927 0.99202 1.1449 1.2706 0.60133 0.35332 2.8605 0.26159 3.8797 0.2548v0.19024h1.7157v-5.0858c-0.11554-0.43146-0.45865-1.0464-0.44506-1.5254 6e-3 -0.23441 0.20055-0.28877 0.25479-0.44844v-4.0666c-0.061-0.18685-0.29895-0.39748-0.31932-0.6387 0.20733-0.39748 0.12232-0.90708 0.25479-1.3963 0.5096-1.8991 0.2548-4.814 0.2548-7.1242m1.2704 42.48v-1.7802c-0.017-0.0543-0.1732-0.20044-0.19037-0.2548-0.12571-0.40767-0.0305-1.3046-0.0644-1.4642-0.12911-0.67946 0.0475-1.6001 0.1291-2.0995 0.0645-0.40428-0.0577-0.8901-0.1291-1.206-0.0212-0.40428-0.0407-0.80516-0.0611-1.2094-0.29556-1.1653-0.59113-2.3442-1.3997-2.9896-2.4257-1.9229-4.7868-2.7348-8.14-3.7506-1.0668-0.32274-2.2049-0.3839-3.2444-0.6353-0.36011-0.0203-0.72023-0.0442-1.0804-0.0645-1.3793-0.32954-3.0032-0.2582-4.3859-0.57075h-0.95464c-0.7814-0.18346-1.8855-0.1291-2.7348-0.1291h-1.0158c-0.68625-0.15968-2.8232-0.21064-3.4992-0.0612-1.4405 0.0204-2.8809 0.0408-4.3248 0.0612-2.0316 0.19024-4.07 0.38389-6.1016 0.57414-0.20373 0.0951-0.40427 0.43146-0.6387 0.5096-0.3839 0.12569-0.49261-0.22083-0.8901-0.12911-0.79836 0.18346-1.7428 0.3907-2.5412 0.57415-0.31593 0.0713-0.45524-0.15287-0.63868-0.1291-0.31256 0.0441-0.83575 0.28197-1.1449 0.3805-0.60813 0.20044-1.1517 0.21403-1.7156 0.44844-1.8006 0.74401-3.4551 1.5186-4.8955 2.6057-1.1211 0.84254-1.3997 2.069-1.7802 3.6895-0.10197 0.43146-0.0407 0.94445-0.1291 1.3351-0.13929 0.62851 0.15284 2.1437-0.12572 2.6058v1.2706c0.0475 0.0917 0.2548 0.0577 0.31596 0.12911 0.10875 0.50959 0.21403 1.0158 0.31935 1.5254-0.0407 0.21403-0.29898 0.55716-0.38051 0.7644-0.13589 0.33293-0.17998 0.82554-0.2548 1.1449v2.8605c0 2.5616-0.017 6.139 1.0158 7.6949 0.6285 0.94105 1.5798 1.3589 2.5446 1.9704 0.31936 0.20383 0.63868 0.58094 0.95464 0.76439 1.6919 0.97503 3.8152 1.3352 5.9147 1.9059 2.0078 0.54697 4.6679 0.99541 6.9951 1.0804 0.7542 0.0272 2.3951 0.43825 2.7314-0.0612 0.29217 0.0679 0.52997 0.24122 0.76439 0.31596h1.2706c1.2366 0.18346 2.5412-0.1223 3.8797 0 1.5118 0.13928 3.4381 0.0985 4.7053-0.19025 0.33633-0.0781 0.57754 0.0951 0.76439 0.12569 0.93087-0.0612 1.8651-0.12569 2.796-0.19024 0.70664-0.15968 1.4778-0.0747 2.2286-0.2548 1.9874-0.47562 4.036-0.46543 5.9113-1.0804 1.1449-0.3737 2.3985-0.67266 3.4992-1.1449 0.50279-0.21743 1.0192-0.62511 1.59-0.761v-1.0192c0.40767 0.0577 0.69645 0.23442 1.0158 0.3805 0.86291-0.86631 1.8753-1.1924 2.4155-2.48 0.42127-0.99201 0.31256-2.2694 0.57414-3.4313v-0.82894c0.14607-0.61831-0.085-1.522 0.0644-2.2252 0.23101-1.0973 0.0613-3.1493 0.0613-4.5762m-21.429 10.11c-0.13928 1.2944-0.46202 2.3747-1.3997 2.8605-1.3555 0.70325-4.9261 0.54017-6.105-0.19024-0.37371-0.23102-0.77459-0.72363-0.95125-1.1449-0.59115-1.3895-0.3839-4.0564-0.3839-5.9759v-1.2094c0.0271-0.0781 0.16981-0.051 0.1291-0.2548-0.0305-0.14609-0.27179-0.41787-0.31935-0.57075-0.31595-1.0294 0.47222-2.1403-0.25479-2.9251 0.0577-0.28198 0.23779-0.33634 0.44504-0.44505v-4.7053c0-0.79497-0.0816-1.7972 0.0647-2.48v-1.59c0.16302-0.7542 0.19694-1.6681 0.57073-2.2252 0.99882-1.4812 5.6022-1.5424 7.1242-0.44505 0.71004 0.5096 0.5266 1.2536 0.95466 1.9059 0.0681 0.0476 0.0577 0.0408 0.19016 0.0645 0.0611 4.4437 0 9.2883 0 13.926 0 1.6103-0.34653 4.2195 0.57075 4.9601-0.0681 0.27858-0.36353 0.39069-0.6353 0.44505m22.573 33.002h-1.4608c-0.11554 0.051-0.10537 0.28877-0.31935 0.2548-0.21743-0.034-0.61153-0.20044-0.82556-0.2548h-6.9951c-0.64887 0.22422-2.0486 0.2582-2.9251 0.19025-0.24123-0.017-0.29559-0.1427-0.44506-0.19025h-4.8344c-0.28198 0.0713-0.67269 0.27179-0.95125 0.31935-0.19376-0.0442-0.3839-0.0849-0.57415-0.1291-0.17998 0.0577-0.3737 0.34652-0.57075 0.44504-0.12572 0.1257-0.84593-0.46883-0.95464-0.63529h-0.57415c0.0237 2.5616 0.45183 7.8716-0.95127 8.9044-1.6749 1.2264-7.0936 1.0158-8.2045-0.5096-0.8833-1.2128-0.95805-4.4301-0.95466-6.4855h0.2548c-0.0816-1.6919-0.12572-3.7744-0.12572-5.6599 0-1.0532 0.0918-2.3985-0.1291-3.2444-0.15624-0.60472 0.0212-1.5899 0.1291-2.0961 0.0712-0.34653-0.0918-0.83235 0.0613-1.0838-0.0106-0.79157-0.15624-0.45863-0.31596-0.82554v-2.6703c0.22084 0.0306 0.32274 0.0713 0.44504 0.19024 0.31257-0.17326 0.59115-1.2434 1.1449-1.5899 1.6647-1.0396 6.037-0.86292 7.5047 0.19024 0.53339 0.3873 0.82556 1.2502 1.0158 1.9738 0.0816 0.30916-0.0212 0.71004 0.12572 0.95125v3.4347c0 0.3771-0.0952 1.0803 0.0644 1.3351 0.69306 0.513 1.8923-0.3771 2.8605-0.0645 1.4235 0.46203 4.1889 0.19364 5.9793 0.19364h2.2898c0.45185-0.1427 2.232-1.2162 2.6058-1.0192 0.26839 0.1325 0.39408 0.61152 0.50959 0.8901 0.55715-7e-3 1.6579-0.0679 1.9704 0.1291 0.88669 0.0136 3.4788 0.20384 3.7506-0.31934 0.44504 0.0203 0.89347 0.0408 1.3385 0.0645 4e-3 -2.9693-0.3771-5.7245-1.6545-7.4401-0.50281-0.67607-1.3589-1.0124-2.0995-1.4642-1.6885-1.0294-3.9001-1.5933-5.9759-2.2252-0.74402-0.12569-1.4846-0.2548-2.2252-0.3805-1.5832-0.43146-3.4992-0.42806-5.2149-0.82894-0.761-0.17666-1.8142-0.22083-2.2252 0.19363-0.40428-0.0747-0.3567-0.34313-0.6387-0.44505h-1.9704c-0.5164-0.1121-1.3114 0.0646-1.9059-0.0645-1.3827-0.29896-2.6533-0.0679-4.1346-0.0645 0.017 0.26499 0.0579 0.43146 0.19037 0.57415v0.0612c-1.2128-7e-3 -2.3068-0.28538-3.241-0.5062-0.7712-0.18685-2.976 0.10871-3.6249 0.2514-1.2094 0.0849-2.4189 0.16987-3.6249 0.2548-1.1245 0.25819-2.3577 0.36351-3.4347 0.63529-0.2548 0.0238-0.50959 0.0442-0.76439 0.0646-0.69984 0.20722-1.4744 0.59453-2.0962 0.82894-0.36012 0.0408-0.72023 0.0849-1.0804 0.12569-0.51299 0.14948-1.06 0.49601-1.3385 0.8901-0.21742-0.0577-0.45185-0.27518-0.761-0.19024-0.51299 0.14269-1.0973 0.6217-1.5254 0.89009-1.8277 1.1381-2.5548 2.6635-3.1799 5.0246-0.22081 0.82555 0.0748 3.5978 0.38051 4.07-0.0952 0.27858-0.40088 0.61152-0.63531 0.761v3.4347c0.2548 0.10532 0.5096 0.21064 0.76442 0.31935-0.16303 0.30916-0.49262 0.68286-0.76442 0.8901 0.16642 0.68626 0.23104 2.1165 0 2.796-0.14267 0.41107-6e-3 1.3318 0.0645 1.6545v1.59c0.21072 0.97842 0.17999 2.0554 0.5062 2.9251 0.62512 1.6511 2.5378 2.6057 4.1345 3.3056 0.46205 0.20045 1.0124 0.54697 1.5254 0.69985 0.25479 0.0204 0.50959 0.0408 0.76439 0.0646 0.12232 0.034 0.33635 0.21742 0.50962 0.19024 0.25819-0.0442 0.68964-0.3839 0.95124-0.5096 0.22082 0.33294 0.69984 0.92747 1.0837 1.0804 0.29557 0.0442 0.59113 0.0849 0.89009 0.12911 0.0645 0.034 0.0748 0.22082 0.12571 0.25479 0.40428 0.0612 0.80516 0.12569 1.2094 0.19025 0.74741 0.19705 1.7224 0.25819 2.5412 0.44504 0.36012 0.0204 0.72023 0.0408 1.0837 0.0612 1.274 0.28878 2.745 0.22083 4.0666 0.5096h1.8447c1.0702 0.23102 2.5276-0.10871 3.625 0.12911 1.5594 0.33633 4.4912 0.0272 5.789-0.2548 0.81197-0.18005 1.471 0.27178 2.1607 0.12569 0.98523-0.21064 2.1505-0.2548 3.2444-0.2548 0.14606-0.14608 0.29556-0.29556 0.44504-0.44505 0.14946-0.14269 0.55717 0.35332 0.82555 0.31935 1.206-0.19024 2.4155-0.3805 3.6249-0.57415 3.3294-0.93765 6.7912-1.4269 9.2203-3.241 0.68628-0.51299 1.1449-1.6681 1.5254-2.48 0.15963-0.034 0.0543-0.0102 0.25479 0 0.83573-1.7564 0.8663-4.4607 0.82554-7.0596" fill="#07223d" stroke="#dcedff" stroke-width="1.113"/></g></svg>
